<svg xmlns="http://www.w3.org/2000/svg" viewBox="0 0 31 31"><g><rect x="0.75" y="0.75" width="7.5" height="7.5" rx="2" fill="#000"/><rect x="1.9" y="1.9" width="5.25" height="5.25" rx="1.25" fill="#fff"/><rect x="3" y="3" width="3" height="3" rx="1" fill="#000"/><rect x="0.75" y="22.75" width="7.5" height="7.5" rx="2" fill="#000"/><rect x="1.9" y="23.9" width="5.25" height="5.25" rx="1.25" fill="#fff"/><rect x="3" y="25" width="3" height="3" rx="1" fill="#000"/><rect x="22.75" y="0.75" width="7.5" height="7.5" rx="2" fill="#000"/><rect x="23.9" y="1.9" width="5.25" height="5.25" rx="1.25" fill="#fff"/><rect x="25" y="3" width="3" height="3" rx="1" fill="#000"/><rect x="21" y="21" width="5" height="5" rx="1.5" fill="#000"/><rect x="22" y="22" width="3" height="3" rx="1" fill="#fff"/><rect x="22.75" y="22.75" width="1.5" height="1.5" rx="0.5" fill="#000"/><path d="M11,1L12,1L12,3L10,3L10,4L9,4L9,2L11,2Z" fill="#000" fill-rule="evenodd"/><path d="M16,1L17,1L17,2L18,2L18,1L21,1L21,2L20,2L20,3L19,3L19,4L18,4L18,3L16,3L16,4L15,4L15,3L14,3L14,2L16,2Z" fill="#000" fill-rule="evenodd"/><path d="M21,2L22,2L22,4L20,4L20,3L21,3Z" fill="#000" fill-rule="evenodd"/><path d="M10,4L11,4L11,5L12,5L12,8L13,8L13,9L14,9L14,10L15,10L15,7L14,7L14,8L13,8L13,4L14,4L14,6L16,6L16,4L18,4L18,5L20,5L20,6L21,6L21,7L20,7L20,8L21,8L21,9L18,9L18,8L19,8L19,7L18,7L18,8L17,8L17,7L16,7L16,11L14,11L14,12L15,12L15,14L14,14L14,13L13,13L13,17L12,17L12,16L10,16L10,14L9,14L9,13L8,13L8,12L4,12L4,13L3,13L3,14L4,14L4,16L2,16L2,15L1,15L1,14L2,14L2,12L3,12L3,11L1,11L1,9L3,9L3,10L4,10L4,11L5,11L5,10L6,10L6,11L10,11L10,12L12,12L12,9L11,9L11,6L10,6L10,9L9,9L9,5L10,5ZM17,6L18,6L18,5L17,5ZM11,13L10,13L10,14L11,14ZM12,14L11,14L11,15L12,15Z" fill="#000" fill-rule="evenodd"/><path d="M21,7L22,7L22,8L21,8Z" fill="#000" fill-rule="evenodd"/><path d="M4,9L5,9L5,10L4,10Z" fill="#000" fill-rule="evenodd"/><path d="M7,9L9,9L9,10L7,10Z" fill="#000" fill-rule="evenodd"/><path d="M23,9L26,9L26,10L24,10L24,12L23,12Z" fill="#000" fill-rule="evenodd"/><path d="M27,9L29,9L29,10L27,10Z" fill="#000" fill-rule="evenodd"/><path d="M10,10L11,10L11,11L10,11Z" fill="#000" fill-rule="evenodd"/><path d="M17,10L20,10L20,11L19,11L19,12L17,12Z" fill="#000" fill-rule="evenodd"/><path d="M21,10L22,10L22,12L20,12L20,11L21,11Z" fill="#000" fill-rule="evenodd"/><path d="M26,10L27,10L27,11L29,11L29,13L30,13L30,14L28,14L28,13L27,13L27,12L26,12Z" fill="#000" fill-rule="evenodd"/><path d="M29,10L30,10L30,11L29,11Z" fill="#000" fill-rule="evenodd"/><path d="M16,12L17,12L17,13L16,13Z" fill="#000" fill-rule="evenodd"/><path d="M19,12L20,12L20,13L19,13Z" fill="#000" fill-rule="evenodd"/><path d="M24,12L26,12L26,13L24,13Z" fill="#000" fill-rule="evenodd"/><path d="M5,13L8,13L8,14L7,14L7,15L6,15L6,14L5,14Z" fill="#000" fill-rule="evenodd"/><path d="M18,13L19,13L19,15L20,15L20,16L21,16L21,15L22,15L22,14L21,14L21,15L20,15L20,13L24,13L24,14L23,14L23,16L22,16L22,17L23,17L23,18L20,18L20,17L19,17L19,18L18,18L18,17L15,17L15,18L14,18L14,21L13,21L13,20L12,20L12,19L13,19L13,17L14,17L14,15L16,15L16,16L17,16L17,15L18,15Z" fill="#000" fill-rule="evenodd"/><path d="M26,13L27,13L27,14L26,14Z" fill="#000" fill-rule="evenodd"/><path d="M16,14L17,14L17,15L16,15Z" fill="#000" fill-rule="evenodd"/><path d="M24,14L25,14L25,15L24,15Z" fill="#000" fill-rule="evenodd"/><path d="M5,15L6,15L6,16L7,16L7,17L8,17L8,16L7,16L7,15L9,15L9,16L10,16L10,17L9,17L9,19L8,19L8,18L5,18L5,19L4,19L4,18L3,18L3,19L2,19L2,17L4,17L4,16L5,16Z" fill="#000" fill-rule="evenodd"/><path d="M26,15L30,15L30,16L29,16L29,18L28,18L28,16L27,16L27,17L26,17Z" fill="#000" fill-rule="evenodd"/><path d="M23,16L24,16L24,17L23,17Z" fill="#000" fill-rule="evenodd"/><path d="M11,17L12,17L12,19L11,19Z" fill="#000" fill-rule="evenodd"/><path d="M24,17L25,17L25,20L24,20L24,21L23,21L23,20L21,20L21,19L23,19L23,18L24,18Z" fill="#000" fill-rule="evenodd"/><path d="M17,18L18,18L18,19L17,19Z" fill="#000" fill-rule="evenodd"/><path d="M19,18L20,18L20,19L19,19Z" fill="#000" fill-rule="evenodd"/><path d="M26,18L27,18L27,19L26,19Z" fill="#000" fill-rule="evenodd"/><path d="M29,18L30,18L30,21L28,21L28,19L29,19Z" fill="#000" fill-rule="evenodd"/><path d="M1,19L2,19L2,20L1,20Z" fill="#000" fill-rule="evenodd"/><path d="M3,19L4,19L4,20L3,20Z" fill="#000" fill-rule="evenodd"/><path d="M5,19L6,19L6,20L5,20Z" fill="#000" fill-rule="evenodd"/><path d="M7,19L8,19L8,20L7,20Z" fill="#000" fill-rule="evenodd"/><path d="M15,19L16,19L16,20L15,20Z" fill="#000" fill-rule="evenodd"/><path d="M6,20L7,20L7,21L8,21L8,22L6,22Z" fill="#000" fill-rule="evenodd"/><path d="M9,20L12,20L12,22L13,22L13,23L12,23L12,25L11,25L11,24L9,24Z" fill="#000" fill-rule="evenodd"/><path d="M16,20L17,20L17,22L15,22L15,23L14,23L14,21L16,21Z" fill="#000" fill-rule="evenodd"/><path d="M18,20L19,20L19,21L18,21Z" fill="#000" fill-rule="evenodd"/><path d="M20,20L21,20L21,21L20,21Z" fill="#000" fill-rule="evenodd"/><path d="M1,21L2,21L2,22L1,22Z" fill="#000" fill-rule="evenodd"/><path d="M4,21L5,21L5,22L4,22Z" fill="#000" fill-rule="evenodd"/><path d="M27,21L28,21L28,22L30,22L30,23L29,23L29,24L28,24L28,23L27,23Z" fill="#000" fill-rule="evenodd"/><path d="M18,22L19,22L19,23L20,23L20,25L19,25L19,24L18,24Z" fill="#000" fill-rule="evenodd"/><path d="M20,22L21,22L21,23L20,23Z" fill="#000" fill-rule="evenodd"/><path d="M15,23L16,23L16,24L15,24Z" fill="#000" fill-rule="evenodd"/><path d="M14,24L15,24L15,25L14,25Z" fill="#000" fill-rule="evenodd"/><path d="M17,24L18,24L18,25L17,25Z" fill="#000" fill-rule="evenodd"/><path d="M26,24L28,24L28,25L26,25Z" fill="#000" fill-rule="evenodd"/><path d="M29,24L30,24L30,25L29,25Z" fill="#000" fill-rule="evenodd"/><path d="M10,25L11,25L11,26L13,26L13,25L14,25L14,28L16,28L16,29L17,29L17,28L18,28L18,27L20,27L20,26L21,26L21,28L19,28L19,29L20,29L20,30L12,30L12,29L13,29L13,27L12,27L12,28L11,28L11,27L9,27L9,26L10,26Z" fill="#000" fill-rule="evenodd"/><path d="M18,25L19,25L19,26L18,26Z" fill="#000" fill-rule="evenodd"/><path d="M15,26L16,26L16,27L15,27Z" fill="#000" fill-rule="evenodd"/><path d="M23,26L24,26L24,27L23,27Z" fill="#000" fill-rule="evenodd"/><path d="M25,26L29,26L29,27L28,27L28,28L26,28L26,30L24,30L24,29L25,29Z" fill="#000" fill-rule="evenodd"/><path d="M22,27L23,27L23,28L22,28Z" fill="#000" fill-rule="evenodd"/><path d="M29,27L30,27L30,28L29,28Z" fill="#000" fill-rule="evenodd"/><path d="M9,28L10,28L10,30L9,30Z" fill="#000" fill-rule="evenodd"/><path d="M21,28L22,28L22,30L21,30Z" fill="#000" fill-rule="evenodd"/><path d="M28,28L29,28L29,30L28,30Z" fill="#000" fill-rule="evenodd"/></g></svg>